# xmcd CD database file
#
# Track frame offsets:
#	150
#	24802
#	47970
#	69438
#	95588
#	125311
#	157859
#	179557
#	202503
#	211328
#	224105
#
# Disc length: 3111 seconds
#
# Revision: 0
# Processed by: cddbd v1.5.1PL2 Copyright (c) Steve Scherf et al.
# Submitted via: CDex 1.51
#
DISCID=950c250b
DTITLE=Vários Artistas - Cururu da Nossa Terra
DYEAR=2003
DGENRE=Cururú
TTITLE0=Rima de São Nicolau - Noel Matias
TTITLE1=Rima Prezunido - Dito Carrara
TTITLE2=Rima de Santa Julieta - Zé Pinto
TTITLE3=Rima do ABC - Cido Garoto
TTITLE4=Rima do "i" - Noel Matias
TTITLE5=Rima de São Judas Tadeu - Dito Carrara
TTITLE6=Rima do Onorato - Zé Pinto
TTITLE7=Rima de Santa Estela - Cido Garoto
TTITLE8=Saiu Assim - Vanerão - Guazzelli do Acordeon
TTITLE9=Recordando - Valsa Sentimental - Guazzelli do Acordeon
TTITLE10=Deixa de Conversa - Forró - Guazzelli do Acordeon
EXTD=YEAR: 2003
EXTT0=
EXTT1=
EXTT2=
EXTT3=
EXTT4=
EXTT5=
EXTT6=
EXTT7=
EXTT8=
EXTT9=
EXTT10=
PLAYORDER=
